<svg xmlns="http://www.w3.org/2000/svg" viewBox="0 0 1080 1080" width="1080" height="1080">
<rect width="1080" height="1080" fill="#fdf6ed"/>
<circle cx="539.59" cy="532.68" r="3.02" fill="#1d1c1c"/>
<circle cx="545.68" cy="520.59" r="2.70" fill="#1d1c1c"/>
<circle cx="538.91" cy="507.09" r="2.34" fill="#1d1c1c"/>
<circle cx="546.85" cy="492.26" r="2.40" fill="#1d1c1c"/>
<circle cx="539.81" cy="480.16" r="2.44" fill="#1d1c1c"/>
<circle cx="546.60" cy="465.32" r="3.34" fill="#1d1c1c"/>
<circle cx="525.24" cy="450.06" r="3.37" fill="#1d1c1c"/>
<circle cx="538.78" cy="451.30" r="2.62" fill="#1d1c1c"/>
<circle cx="554.01" cy="449.30" r="2.64" fill="#1d1c1c"/>
<circle cx="533.22" cy="434.48" r="2.94" fill="#1d1c1c"/>
<circle cx="548.03" cy="435.01" r="2.90" fill="#1d1c1c"/>
<circle cx="523.13" cy="418.82" r="2.53" fill="#1d1c1c"/>
<circle cx="540.51" cy="419.86" r="2.65" fill="#1d1c1c"/>
<circle cx="555.88" cy="419.93" r="2.63" fill="#1d1c1c"/>
<circle cx="532.86" cy="404.99" r="2.57" fill="#1d1c1c"/>
<circle cx="548.21" cy="404.49" r="3.26" fill="#1d1c1c"/>
<circle cx="564.63" cy="403.81" r="3.38" fill="#1d1c1c"/>
<circle cx="506.21" cy="388.20" r="3.13" fill="#1d1c1c"/>
<circle cx="522.64" cy="388.41" r="2.34" fill="#1d1c1c"/>
<circle cx="540.49" cy="389.22" r="2.93" fill="#1d1c1c"/>
<circle cx="557.44" cy="387.89" r="3.06" fill="#1d1c1c"/>
<circle cx="572.95" cy="388.67" r="2.80" fill="#1d1c1c"/>
<circle cx="515.98" cy="373.44" r="2.82" fill="#1d1c1c"/>
<circle cx="532.15" cy="370.78" r="3.07" fill="#1d1c1c"/>
<circle cx="548.79" cy="373.59" r="3.20" fill="#1d1c1c"/>
<circle cx="564.39" cy="371.76" r="3.04" fill="#1d1c1c"/>
<circle cx="504.41" cy="355.29" r="2.48" fill="#1d1c1c"/>
<circle cx="521.76" cy="354.06" r="3.15" fill="#1d1c1c"/>
<circle cx="538.86" cy="354.64" r="2.73" fill="#1d1c1c"/>
<circle cx="558.20" cy="354.12" r="2.79" fill="#1d1c1c"/>
<circle cx="574.27" cy="356.59" r="3.20" fill="#1d1c1c"/>
<circle cx="497.55" cy="337.65" r="2.76" fill="#1d1c1c"/>
<circle cx="513.40" cy="339.56" r="3.35" fill="#1d1c1c"/>
<circle cx="530.19" cy="337.33" r="2.56" fill="#1d1c1c"/>
<circle cx="547.88" cy="338.30" r="2.95" fill="#1d1c1c"/>
<circle cx="565.41" cy="336.79" r="2.76" fill="#1d1c1c"/>
<circle cx="583.18" cy="338.56" r="3.35" fill="#1d1c1c"/>
<circle cx="487.15" cy="320.96" r="2.98" fill="#1d1c1c"/>
<circle cx="504.93" cy="319.48" r="3.29" fill="#1d1c1c"/>
<circle cx="523.08" cy="322.11" r="3.18" fill="#1d1c1c"/>
<circle cx="539.65" cy="320.59" r="2.41" fill="#1d1c1c"/>
<circle cx="558.25" cy="319.51" r="2.37" fill="#1d1c1c"/>
<circle cx="574.71" cy="319.83" r="2.67" fill="#1d1c1c"/>
<circle cx="592.02" cy="319.31" r="2.47" fill="#1d1c1c"/>
<circle cx="474.95" cy="302.65" r="2.33" fill="#1d1c1c"/>
<circle cx="495.70" cy="303.47" r="2.46" fill="#1d1c1c"/>
<circle cx="511.87" cy="302.59" r="2.70" fill="#1d1c1c"/>
<circle cx="529.66" cy="304.24" r="3.39" fill="#1d1c1c"/>
<circle cx="548.99" cy="303.04" r="2.39" fill="#1d1c1c"/>
<circle cx="566.01" cy="302.58" r="2.59" fill="#1d1c1c"/>
<circle cx="586.61" cy="301.98" r="2.33" fill="#1d1c1c"/>
<circle cx="605.22" cy="303.19" r="2.46" fill="#1d1c1c"/>
<circle cx="447.08" cy="283.30" r="2.88" fill="#1d1c1c"/>
<circle cx="467.15" cy="286.10" r="3.07" fill="#1d1c1c"/>
<circle cx="483.36" cy="284.44" r="2.48" fill="#1d1c1c"/>
<circle cx="503.69" cy="284.99" r="3.16" fill="#1d1c1c"/>
<circle cx="520.82" cy="283.95" r="3.19" fill="#1d1c1c"/>
<circle cx="541.62" cy="286.06" r="3.19" fill="#1d1c1c"/>
<circle cx="559.68" cy="285.69" r="2.55" fill="#1d1c1c"/>
<circle cx="577.28" cy="284.40" r="2.33" fill="#1d1c1c"/>
<circle cx="594.26" cy="284.14" r="2.59" fill="#1d1c1c"/>
<circle cx="615.10" cy="286.41" r="2.79" fill="#1d1c1c"/>
<circle cx="634.53" cy="286.52" r="3.35" fill="#1d1c1c"/>
<circle cx="453.94" cy="265.31" r="2.55" fill="#1d1c1c"/>
<circle cx="472.38" cy="265.26" r="2.99" fill="#1d1c1c"/>
<circle cx="493.82" cy="267.43" r="2.83" fill="#1d1c1c"/>
<circle cx="511.99" cy="267.30" r="2.39" fill="#1d1c1c"/>
<circle cx="531.04" cy="267.67" r="3.16" fill="#1d1c1c"/>
<circle cx="550.37" cy="266.19" r="2.50" fill="#1d1c1c"/>
<circle cx="569.52" cy="265.70" r="3.18" fill="#1d1c1c"/>
<circle cx="589.17" cy="265.91" r="2.74" fill="#1d1c1c"/>
<circle cx="608.11" cy="267.04" r="2.49" fill="#1d1c1c"/>
<circle cx="624.32" cy="265.07" r="3.30" fill="#1d1c1c"/>
<circle cx="645.67" cy="265.06" r="3.21" fill="#1d1c1c"/>
<circle cx="425.04" cy="247.80" r="2.69" fill="#1d1c1c"/>
<circle cx="442.97" cy="245.96" r="2.32" fill="#1d1c1c"/>
<circle cx="463.89" cy="247.77" r="2.88" fill="#1d1c1c"/>
<circle cx="483.20" cy="247.02" r="3.26" fill="#1d1c1c"/>
<circle cx="502.26" cy="246.24" r="2.58" fill="#1d1c1c"/>
<circle cx="519.83" cy="246.34" r="2.95" fill="#1d1c1c"/>
<circle cx="539.16" cy="246.96" r="2.44" fill="#1d1c1c"/>
<circle cx="560.88" cy="246.74" r="2.80" fill="#1d1c1c"/>
<circle cx="579.17" cy="248.66" r="2.76" fill="#1d1c1c"/>
<circle cx="599.78" cy="247.25" r="2.89" fill="#1d1c1c"/>
<circle cx="617.84" cy="245.56" r="2.78" fill="#1d1c1c"/>
<circle cx="636.09" cy="245.51" r="3.18" fill="#1d1c1c"/>
<circle cx="655.50" cy="247.15" r="3.10" fill="#1d1c1c"/>
<circle cx="411.06" cy="227.18" r="2.87" fill="#1d1c1c"/>
<circle cx="430.92" cy="228.82" r="2.42" fill="#1d1c1c"/>
<circle cx="450.81" cy="226.91" r="2.60" fill="#1d1c1c"/>
<circle cx="471.43" cy="227.83" r="2.92" fill="#1d1c1c"/>
<circle cx="491.26" cy="229.28" r="2.79" fill="#1d1c1c"/>
<circle cx="510.60" cy="227.83" r="2.86" fill="#1d1c1c"/>
<circle cx="530.76" cy="227.64" r="2.89" fill="#1d1c1c"/>
<circle cx="549.86" cy="229.39" r="3.07" fill="#1d1c1c"/>
<circle cx="571.15" cy="229.39" r="2.59" fill="#1d1c1c"/>
<circle cx="589.88" cy="229.39" r="3.22" fill="#1d1c1c"/>
<circle cx="608.24" cy="226.45" r="2.79" fill="#1d1c1c"/>
<circle cx="627.88" cy="226.88" r="2.38" fill="#1d1c1c"/>
<circle cx="649.88" cy="228.82" r="3.29" fill="#1d1c1c"/>
<circle cx="667.91" cy="228.58" r="3.03" fill="#1d1c1c"/>
<circle cx="376.25" cy="209.34" r="3.36" fill="#1d1c1c"/>
<circle cx="396.84" cy="209.59" r="2.74" fill="#1d1c1c"/>
<circle cx="418.12" cy="209.73" r="3.22" fill="#1d1c1c"/>
<circle cx="437.24" cy="207.69" r="2.87" fill="#1d1c1c"/>
<circle cx="458.19" cy="206.83" r="2.65" fill="#1d1c1c"/>
<circle cx="479.90" cy="206.18" r="2.91" fill="#1d1c1c"/>
<circle cx="499.17" cy="206.18" r="2.66" fill="#1d1c1c"/>
<circle cx="520.15" cy="207.98" r="2.37" fill="#1d1c1c"/>
<circle cx="541.77" cy="208.99" r="3.37" fill="#1d1c1c"/>
<circle cx="558.86" cy="207.08" r="2.34" fill="#1d1c1c"/>
<circle cx="581.63" cy="207.10" r="2.44" fill="#1d1c1c"/>
<circle cx="600.63" cy="209.44" r="3.20" fill="#1d1c1c"/>
<circle cx="620.34" cy="206.66" r="3.31" fill="#1d1c1c"/>
<circle cx="641.78" cy="208.67" r="2.40" fill="#1d1c1c"/>
<circle cx="660.21" cy="208.63" r="2.77" fill="#1d1c1c"/>
<circle cx="680.57" cy="209.54" r="3.00" fill="#1d1c1c"/>
<circle cx="703.55" cy="206.42" r="3.24" fill="#1d1c1c"/>
<circle cx="361.99" cy="188.99" r="2.80" fill="#1d1c1c"/>
<circle cx="383.76" cy="187.83" r="3.32" fill="#1d1c1c"/>
<circle cx="404.24" cy="186.25" r="2.88" fill="#1d1c1c"/>
<circle cx="424.89" cy="186.17" r="2.48" fill="#1d1c1c"/>
<circle cx="444.94" cy="186.52" r="2.64" fill="#1d1c1c"/>
<circle cx="466.64" cy="188.60" r="2.62" fill="#1d1c1c"/>
<circle cx="488.12" cy="186.43" r="2.68" fill="#1d1c1c"/>
<circle cx="507.07" cy="186.70" r="2.32" fill="#1d1c1c"/>
<circle cx="530.49" cy="187.82" r="2.51" fill="#1d1c1c"/>
<circle cx="550.28" cy="189.26" r="2.42" fill="#1d1c1c"/>
<circle cx="572.32" cy="187.38" r="2.84" fill="#1d1c1c"/>
<circle cx="593.13" cy="187.23" r="2.86" fill="#1d1c1c"/>
<circle cx="613.33" cy="189.43" r="2.68" fill="#1d1c1c"/>
<circle cx="634.63" cy="188.41" r="3.00" fill="#1d1c1c"/>
<circle cx="653.78" cy="187.06" r="2.36" fill="#1d1c1c"/>
<circle cx="673.51" cy="186.03" r="3.11" fill="#1d1c1c"/>
<circle cx="694.73" cy="186.37" r="2.39" fill="#1d1c1c"/>
<circle cx="717.67" cy="189.02" r="3.04" fill="#1d1c1c"/>
<circle cx="327.08" cy="165.90" r="2.62" fill="#1d1c1c"/>
<circle cx="348.97" cy="165.57" r="2.79" fill="#1d1c1c"/>
<circle cx="369.43" cy="168.64" r="3.37" fill="#1d1c1c"/>
<circle cx="391.72" cy="165.91" r="3.36" fill="#1d1c1c"/>
<circle cx="412.02" cy="166.33" r="2.30" fill="#1d1c1c"/>
<circle cx="433.50" cy="166.78" r="2.85" fill="#1d1c1c"/>
<circle cx="454.02" cy="166.90" r="2.31" fill="#1d1c1c"/>
<circle cx="475.47" cy="165.31" r="2.74" fill="#1d1c1c"/>
<circle cx="495.83" cy="165.06" r="2.63" fill="#1d1c1c"/>
<circle cx="517.77" cy="167.21" r="2.88" fill="#1d1c1c"/>
<circle cx="540.96" cy="167.48" r="3.09" fill="#1d1c1c"/>
<circle cx="562.66" cy="166.46" r="2.66" fill="#1d1c1c"/>
<circle cx="584.27" cy="165.54" r="3.10" fill="#1d1c1c"/>
<circle cx="604.17" cy="165.14" r="3.22" fill="#1d1c1c"/>
<circle cx="626.33" cy="167.37" r="3.11" fill="#1d1c1c"/>
<circle cx="647.24" cy="165.50" r="2.88" fill="#1d1c1c"/>
<circle cx="667.27" cy="168.16" r="3.19" fill="#1d1c1c"/>
<circle cx="689.71" cy="167.20" r="3.28" fill="#1d1c1c"/>
<circle cx="710.37" cy="167.62" r="2.55" fill="#1d1c1c"/>
<circle cx="729.09" cy="165.48" r="2.70" fill="#1d1c1c"/>
<circle cx="750.58" cy="168.16" r="2.91" fill="#1d1c1c"/>
<circle cx="312.91" cy="146.16" r="3.05" fill="#1d1c1c"/>
<circle cx="334.04" cy="143.73" r="3.18" fill="#1d1c1c"/>
<circle cx="356.73" cy="145.68" r="2.89" fill="#1d1c1c"/>
<circle cx="378.06" cy="143.98" r="3.11" fill="#1d1c1c"/>
<circle cx="398.14" cy="144.01" r="2.59" fill="#1d1c1c"/>
<circle cx="421.68" cy="144.52" r="3.11" fill="#1d1c1c"/>
<circle cx="444.32" cy="145.65" r="2.72" fill="#1d1c1c"/>
<circle cx="464.05" cy="146.39" r="3.14" fill="#1d1c1c"/>
<circle cx="486.27" cy="146.23" r="2.39" fill="#1d1c1c"/>
<circle cx="506.11" cy="144.71" r="3.12" fill="#1d1c1c"/>
<circle cx="528.40" cy="145.94" r="2.31" fill="#1d1c1c"/>
<circle cx="549.12" cy="144.77" r="3.04" fill="#1d1c1c"/>
<circle cx="573.26" cy="146.36" r="2.62" fill="#1d1c1c"/>
<circle cx="594.25" cy="145.53" r="2.81" fill="#1d1c1c"/>
<circle cx="614.37" cy="147.21" r="2.52" fill="#1d1c1c"/>
<circle cx="639.40" cy="147.37" r="2.32" fill="#1d1c1c"/>
<circle cx="659.05" cy="146.92" r="3.36" fill="#1d1c1c"/>
<circle cx="680.69" cy="144.77" r="2.53" fill="#1d1c1c"/>
<circle cx="704.30" cy="144.54" r="2.94" fill="#1d1c1c"/>
<circle cx="722.84" cy="145.77" r="3.35" fill="#1d1c1c"/>
<circle cx="744.48" cy="146.92" r="2.86" fill="#1d1c1c"/>
<circle cx="769.10" cy="146.47" r="2.55" fill="#1d1c1c"/>
<circle cx="790.82" cy="145.62" r="2.33" fill="#1d1c1c"/>
<circle cx="250.04" cy="123.96" r="2.80" fill="#1d1c1c"/>
<circle cx="273.39" cy="122.56" r="2.68" fill="#1d1c1c"/>
<circle cx="295.59" cy="125.35" r="2.30" fill="#1d1c1c"/>
<circle cx="319.48" cy="125.35" r="2.43" fill="#1d1c1c"/>
<circle cx="342.33" cy="124.85" r="3.29" fill="#1d1c1c"/>
<circle cx="361.95" cy="123.49" r="2.73" fill="#1d1c1c"/>
<circle cx="386.92" cy="124.35" r="2.70" fill="#1d1c1c"/>
<circle cx="406.80" cy="123.10" r="2.35" fill="#1d1c1c"/>
<circle cx="427.65" cy="125.33" r="2.61" fill="#1d1c1c"/>
<circle cx="453.13" cy="123.00" r="2.59" fill="#1d1c1c"/>
<circle cx="473.59" cy="122.76" r="2.71" fill="#1d1c1c"/>
<circle cx="497.51" cy="125.53" r="3.19" fill="#1d1c1c"/>
<circle cx="518.37" cy="125.65" r="3.33" fill="#1d1c1c"/>
<circle cx="540.20" cy="124.87" r="2.35" fill="#1d1c1c"/>
<circle cx="563.08" cy="123.80" r="3.13" fill="#1d1c1c"/>
<circle cx="584.88" cy="123.14" r="2.35" fill="#1d1c1c"/>
<circle cx="608.16" cy="122.51" r="2.82" fill="#1d1c1c"/>
<circle cx="627.98" cy="123.19" r="3.11" fill="#1d1c1c"/>
<circle cx="652.66" cy="123.04" r="3.02" fill="#1d1c1c"/>
<circle cx="672.12" cy="124.23" r="2.73" fill="#1d1c1c"/>
<circle cx="693.74" cy="122.65" r="2.53" fill="#1d1c1c"/>
<circle cx="718.84" cy="123.99" r="2.54" fill="#1d1c1c"/>
<circle cx="740.99" cy="125.98" r="2.79" fill="#1d1c1c"/>
<circle cx="760.08" cy="122.77" r="2.40" fill="#1d1c1c"/>
<circle cx="783.04" cy="122.37" r="2.56" fill="#1d1c1c"/>
<circle cx="804.86" cy="124.27" r="3.28" fill="#1d1c1c"/>
<circle cx="828.97" cy="123.65" r="2.76" fill="#1d1c1c"/>
<circle cx="211.83" cy="101.34" r="2.67" fill="#1d1c1c"/>
<circle cx="232.58" cy="100.94" r="3.36" fill="#1d1c1c"/>
<circle cx="255.48" cy="101.86" r="2.99" fill="#1d1c1c"/>
<circle cx="281.13" cy="100.69" r="2.60" fill="#1d1c1c"/>
<circle cx="301.26" cy="101.44" r="2.79" fill="#1d1c1c"/>
<circle cx="326.78" cy="103.27" r="3.26" fill="#1d1c1c"/>
<circle cx="345.62" cy="99.94" r="3.08" fill="#1d1c1c"/>
<circle cx="371.82" cy="101.74" r="2.95" fill="#1d1c1c"/>
<circle cx="390.81" cy="101.40" r="3.32" fill="#1d1c1c"/>
<circle cx="416.81" cy="103.29" r="3.37" fill="#1d1c1c"/>
<circle cx="437.10" cy="100.25" r="2.47" fill="#1d1c1c"/>
<circle cx="460.85" cy="102.59" r="3.34" fill="#1d1c1c"/>
<circle cx="484.31" cy="102.45" r="3.14" fill="#1d1c1c"/>
<circle cx="505.87" cy="102.05" r="2.34" fill="#1d1c1c"/>
<circle cx="529.83" cy="100.76" r="3.31" fill="#1d1c1c"/>
<circle cx="551.91" cy="101.05" r="2.44" fill="#1d1c1c"/>
<circle cx="572.95" cy="102.40" r="3.07" fill="#1d1c1c"/>
<circle cx="595.02" cy="100.09" r="2.88" fill="#1d1c1c"/>
<circle cx="619.58" cy="101.39" r="2.55" fill="#1d1c1c"/>
<circle cx="642.29" cy="99.85" r="2.63" fill="#1d1c1c"/>
<circle cx="664.36" cy="103.72" r="3.01" fill="#1d1c1c"/>
<circle cx="688.72" cy="101.74" r="2.56" fill="#1d1c1c"/>
<circle cx="708.76" cy="103.72" r="3.08" fill="#1d1c1c"/>
<circle cx="731.65" cy="99.90" r="2.85" fill="#1d1c1c"/>
<circle cx="755.79" cy="101.52" r="2.58" fill="#1d1c1c"/>
<circle cx="778.40" cy="103.58" r="2.55" fill="#1d1c1c"/>
<circle cx="798.45" cy="101.18" r="2.76" fill="#1d1c1c"/>
<circle cx="823.74" cy="100.61" r="3.18" fill="#1d1c1c"/>
<circle cx="846.61" cy="101.86" r="2.53" fill="#1d1c1c"/>
<circle cx="870.19" cy="101.08" r="3.20" fill="#1d1c1c"/>
<circle cx="145.54" cy="78.05" r="3.14" fill="#1d1c1c"/>
<circle cx="168.95" cy="81.09" r="2.85" fill="#1d1c1c"/>
<circle cx="191.64" cy="78.05" r="2.76" fill="#1d1c1c"/>
<circle cx="216.76" cy="81.07" r="2.46" fill="#1d1c1c"/>
<circle cx="238.77" cy="78.01" r="3.37" fill="#1d1c1c"/>
<circle cx="260.86" cy="77.34" r="2.37" fill="#1d1c1c"/>
<circle cx="285.04" cy="80.86" r="3.27" fill="#1d1c1c"/>
<circle cx="309.59" cy="81.28" r="3.32" fill="#1d1c1c"/>
<circle cx="331.05" cy="77.90" r="3.33" fill="#1d1c1c"/>
<circle cx="355.93" cy="77.26" r="3.03" fill="#1d1c1c"/>
<circle cx="377.53" cy="78.68" r="2.66" fill="#1d1c1c"/>
<circle cx="399.80" cy="77.14" r="2.61" fill="#1d1c1c"/>
<circle cx="423.69" cy="81.10" r="2.44" fill="#1d1c1c"/>
<circle cx="449.38" cy="77.99" r="2.69" fill="#1d1c1c"/>
<circle cx="471.93" cy="80.55" r="2.78" fill="#1d1c1c"/>
<circle cx="491.85" cy="79.09" r="2.71" fill="#1d1c1c"/>
<circle cx="518.61" cy="77.93" r="2.70" fill="#1d1c1c"/>
<circle cx="541.65" cy="77.25" r="2.75" fill="#1d1c1c"/>
<circle cx="564.44" cy="80.32" r="2.34" fill="#1d1c1c"/>
<circle cx="584.34" cy="77.38" r="3.31" fill="#1d1c1c"/>
<circle cx="608.40" cy="80.24" r="3.29" fill="#1d1c1c"/>
<circle cx="631.88" cy="78.26" r="3.35" fill="#1d1c1c"/>
<circle cx="656.17" cy="78.21" r="3.09" fill="#1d1c1c"/>
<circle cx="678.06" cy="78.27" r="2.30" fill="#1d1c1c"/>
<circle cx="703.03" cy="80.94" r="3.00" fill="#1d1c1c"/>
<circle cx="726.95" cy="77.22" r="2.56" fill="#1d1c1c"/>
<circle cx="748.13" cy="81.11" r="3.35" fill="#1d1c1c"/>
<circle cx="770.90" cy="78.17" r="2.77" fill="#1d1c1c"/>
<circle cx="794.49" cy="80.99" r="2.50" fill="#1d1c1c"/>
<circle cx="818.91" cy="80.20" r="3.21" fill="#1d1c1c"/>
<circle cx="841.92" cy="79.65" r="2.66" fill="#1d1c1c"/>
<circle cx="863.17" cy="78.63" r="3.16" fill="#1d1c1c"/>
<circle cx="885.31" cy="77.94" r="3.13" fill="#1d1c1c"/>
<circle cx="909.15" cy="77.39" r="2.34" fill="#1d1c1c"/>
<circle cx="933.56" cy="78.48" r="3.38" fill="#1d1c1c"/>
<circle cx="104.17" cy="58.14" r="2.59" fill="#1d1c1c"/>
<circle cx="124.42" cy="54.35" r="2.85" fill="#1d1c1c"/>
<circle cx="150.73" cy="55.84" r="2.56" fill="#1d1c1c"/>
<circle cx="173.13" cy="56.58" r="3.04" fill="#1d1c1c"/>
<circle cx="198.18" cy="57.54" r="3.03" fill="#1d1c1c"/>
<circle cx="219.16" cy="57.52" r="2.62" fill="#1d1c1c"/>
<circle cx="244.70" cy="55.53" r="3.11" fill="#1d1c1c"/>
<circle cx="266.78" cy="54.99" r="2.57" fill="#1d1c1c"/>
<circle cx="290.24" cy="57.70" r="2.94" fill="#1d1c1c"/>
<circle cx="314.62" cy="55.63" r="3.39" fill="#1d1c1c"/>
<circle cx="339.04" cy="54.92" r="3.19" fill="#1d1c1c"/>
<circle cx="363.30" cy="58.16" r="2.41" fill="#1d1c1c"/>
<circle cx="386.19" cy="57.43" r="3.22" fill="#1d1c1c"/>
<circle cx="411.71" cy="54.11" r="2.62" fill="#1d1c1c"/>
<circle cx="431.97" cy="54.75" r="3.37" fill="#1d1c1c"/>
<circle cx="457.59" cy="57.90" r="2.71" fill="#1d1c1c"/>
<circle cx="482.44" cy="55.85" r="2.59" fill="#1d1c1c"/>
<circle cx="505.71" cy="57.97" r="2.42" fill="#1d1c1c"/>
<circle cx="528.59" cy="56.58" r="2.54" fill="#1d1c1c"/>
<circle cx="551.26" cy="54.54" r="2.52" fill="#1d1c1c"/>
<circle cx="574.43" cy="56.49" r="3.02" fill="#1d1c1c"/>
<circle cx="597.85" cy="53.99" r="2.66" fill="#1d1c1c"/>
<circle cx="623.52" cy="54.73" r="2.64" fill="#1d1c1c"/>
<circle cx="645.15" cy="57.32" r="2.90" fill="#1d1c1c"/>
<circle cx="668.20" cy="54.37" r="2.73" fill="#1d1c1c"/>
<circle cx="693.92" cy="56.66" r="2.40" fill="#1d1c1c"/>
<circle cx="715.92" cy="56.90" r="2.75" fill="#1d1c1c"/>
<circle cx="740.07" cy="55.25" r="3.35" fill="#1d1c1c"/>
<circle cx="763.84" cy="56.35" r="2.69" fill="#1d1c1c"/>
<circle cx="787.93" cy="57.62" r="3.40" fill="#1d1c1c"/>
<circle cx="811.36" cy="54.78" r="3.10" fill="#1d1c1c"/>
<circle cx="834.32" cy="53.96" r="3.29" fill="#1d1c1c"/>
<circle cx="858.90" cy="57.43" r="2.75" fill="#1d1c1c"/>
<circle cx="884.50" cy="55.90" r="2.48" fill="#1d1c1c"/>
<circle cx="904.46" cy="56.29" r="3.00" fill="#1d1c1c"/>
<circle cx="931.91" cy="54.32" r="2.98" fill="#1d1c1c"/>
<circle cx="953.26" cy="56.09" r="2.46" fill="#1d1c1c"/>
<circle cx="976.54" cy="56.16" r="3.32" fill="#1d1c1c"/>
<circle cx="539.08" cy="546.48" r="3.19" fill="#1d1c1c"/>
<circle cx="547.84" cy="558.77" r="2.44" fill="#1d1c1c"/>
<circle cx="541.09" cy="574.10" r="2.83" fill="#1d1c1c"/>
<circle cx="545.89" cy="587.73" r="2.73" fill="#1d1c1c"/>
<circle cx="541.04" cy="600.99" r="3.21" fill="#1d1c1c"/>
<circle cx="546.43" cy="615.77" r="2.54" fill="#1d1c1c"/>
<circle cx="524.77" cy="630.60" r="3.21" fill="#1d1c1c"/>
<circle cx="539.15" cy="628.91" r="2.74" fill="#1d1c1c"/>
<circle cx="555.02" cy="629.35" r="2.44" fill="#1d1c1c"/>
<circle cx="531.65" cy="645.26" r="3.29" fill="#1d1c1c"/>
<circle cx="546.39" cy="644.81" r="3.13" fill="#1d1c1c"/>
<circle cx="523.06" cy="660.89" r="2.43" fill="#1d1c1c"/>
<circle cx="540.28" cy="660.08" r="2.99" fill="#1d1c1c"/>
<circle cx="555.09" cy="659.71" r="2.94" fill="#1d1c1c"/>
<circle cx="531.79" cy="676.04" r="2.79" fill="#1d1c1c"/>
<circle cx="547.81" cy="674.21" r="2.98" fill="#1d1c1c"/>
<circle cx="563.94" cy="674.82" r="3.14" fill="#1d1c1c"/>
<circle cx="508.15" cy="691.44" r="2.50" fill="#1d1c1c"/>
<circle cx="523.59" cy="690.41" r="2.44" fill="#1d1c1c"/>
<circle cx="539.80" cy="690.36" r="2.79" fill="#1d1c1c"/>
<circle cx="556.36" cy="690.21" r="3.00" fill="#1d1c1c"/>
<circle cx="571.44" cy="692.25" r="3.16" fill="#1d1c1c"/>
<circle cx="514.99" cy="706.56" r="2.85" fill="#1d1c1c"/>
<circle cx="531.29" cy="709.25" r="2.45" fill="#1d1c1c"/>
<circle cx="549.42" cy="709.39" r="3.11" fill="#1d1c1c"/>
<circle cx="565.99" cy="706.98" r="3.38" fill="#1d1c1c"/>
<circle cx="505.85" cy="725.99" r="3.31" fill="#1d1c1c"/>
<circle cx="521.91" cy="725.47" r="3.32" fill="#1d1c1c"/>
<circle cx="538.67" cy="724.13" r="3.13" fill="#1d1c1c"/>
<circle cx="556.01" cy="725.81" r="2.60" fill="#1d1c1c"/>
<circle cx="575.09" cy="723.49" r="2.85" fill="#1d1c1c"/>
<circle cx="497.73" cy="740.73" r="2.59" fill="#1d1c1c"/>
<circle cx="513.86" cy="741.08" r="2.34" fill="#1d1c1c"/>
<circle cx="530.28" cy="740.59" r="3.33" fill="#1d1c1c"/>
<circle cx="549.28" cy="742.89" r="2.49" fill="#1d1c1c"/>
<circle cx="567.05" cy="740.44" r="2.88" fill="#1d1c1c"/>
<circle cx="584.02" cy="741.21" r="3.26" fill="#1d1c1c"/>
<circle cx="486.72" cy="759.34" r="3.27" fill="#1d1c1c"/>
<circle cx="503.09" cy="760.67" r="2.99" fill="#1d1c1c"/>
<circle cx="521.84" cy="760.04" r="2.59" fill="#1d1c1c"/>
<circle cx="541.57" cy="759.33" r="2.70" fill="#1d1c1c"/>
<circle cx="558.67" cy="758.90" r="2.49" fill="#1d1c1c"/>
<circle cx="576.42" cy="757.64" r="3.20" fill="#1d1c1c"/>
<circle cx="592.67" cy="759.53" r="3.38" fill="#1d1c1c"/>
<circle cx="476.54" cy="777.44" r="2.64" fill="#1d1c1c"/>
<circle cx="492.84" cy="775.38" r="2.46" fill="#1d1c1c"/>
<circle cx="513.06" cy="776.68" r="2.86" fill="#1d1c1c"/>
<circle cx="532.19" cy="775.70" r="2.55" fill="#1d1c1c"/>
<circle cx="549.61" cy="775.34" r="2.30" fill="#1d1c1c"/>
<circle cx="566.84" cy="775.62" r="2.69" fill="#1d1c1c"/>
<circle cx="584.63" cy="777.18" r="2.95" fill="#1d1c1c"/>
<circle cx="602.77" cy="777.31" r="2.82" fill="#1d1c1c"/>
<circle cx="445.71" cy="796.58" r="2.57" fill="#1d1c1c"/>
<circle cx="464.37" cy="793.76" r="3.00" fill="#1d1c1c"/>
<circle cx="485.41" cy="796.06" r="2.74" fill="#1d1c1c"/>
<circle cx="501.98" cy="793.48" r="3.01" fill="#1d1c1c"/>
<circle cx="521.60" cy="794.62" r="3.01" fill="#1d1c1c"/>
<circle cx="539.81" cy="796.58" r="3.11" fill="#1d1c1c"/>
<circle cx="557.77" cy="796.47" r="2.35" fill="#1d1c1c"/>
<circle cx="577.33" cy="794.80" r="2.56" fill="#1d1c1c"/>
<circle cx="594.36" cy="796.05" r="2.31" fill="#1d1c1c"/>
<circle cx="614.62" cy="796.60" r="2.46" fill="#1d1c1c"/>
<circle cx="632.06" cy="795.48" r="2.86" fill="#1d1c1c"/>
<circle cx="454.89" cy="814.80" r="2.49" fill="#1d1c1c"/>
<circle cx="472.77" cy="813.05" r="2.35" fill="#1d1c1c"/>
<circle cx="493.78" cy="814.70" r="3.09" fill="#1d1c1c"/>
<circle cx="509.78" cy="814.91" r="3.12" fill="#1d1c1c"/>
<circle cx="530.37" cy="814.56" r="2.80" fill="#1d1c1c"/>
<circle cx="548.57" cy="812.38" r="2.56" fill="#1d1c1c"/>
<circle cx="566.95" cy="813.17" r="3.12" fill="#1d1c1c"/>
<circle cx="588.22" cy="814.91" r="3.08" fill="#1d1c1c"/>
<circle cx="605.78" cy="813.92" r="2.78" fill="#1d1c1c"/>
<circle cx="626.59" cy="813.81" r="2.59" fill="#1d1c1c"/>
<circle cx="645.11" cy="815.32" r="2.54" fill="#1d1c1c"/>
<circle cx="424.69" cy="831.06" r="2.59" fill="#1d1c1c"/>
<circle cx="441.87" cy="833.61" r="3.34" fill="#1d1c1c"/>
<circle cx="463.10" cy="832.15" r="3.27" fill="#1d1c1c"/>
<circle cx="481.08" cy="831.84" r="3.30" fill="#1d1c1c"/>
<circle cx="501.58" cy="833.43" r="3.03" fill="#1d1c1c"/>
<circle cx="522.24" cy="832.65" r="3.22" fill="#1d1c1c"/>
<circle cx="540.69" cy="834.00" r="2.78" fill="#1d1c1c"/>
<circle cx="560.23" cy="833.00" r="2.64" fill="#1d1c1c"/>
<circle cx="577.87" cy="833.18" r="2.39" fill="#1d1c1c"/>
<circle cx="599.76" cy="831.51" r="2.33" fill="#1d1c1c"/>
<circle cx="616.39" cy="834.25" r="2.68" fill="#1d1c1c"/>
<circle cx="635.95" cy="831.10" r="2.35" fill="#1d1c1c"/>
<circle cx="657.32" cy="833.22" r="3.07" fill="#1d1c1c"/>
<circle cx="411.70" cy="850.64" r="2.95" fill="#1d1c1c"/>
<circle cx="430.24" cy="853.33" r="3.20" fill="#1d1c1c"/>
<circle cx="451.99" cy="850.64" r="3.25" fill="#1d1c1c"/>
<circle cx="471.94" cy="853.78" r="2.42" fill="#1d1c1c"/>
<circle cx="489.28" cy="850.81" r="2.34" fill="#1d1c1c"/>
<circle cx="511.44" cy="853.31" r="3.00" fill="#1d1c1c"/>
<circle cx="531.23" cy="852.66" r="2.62" fill="#1d1c1c"/>
<circle cx="548.50" cy="850.76" r="3.13" fill="#1d1c1c"/>
<circle cx="568.75" cy="851.55" r="2.77" fill="#1d1c1c"/>
<circle cx="587.96" cy="851.32" r="2.61" fill="#1d1c1c"/>
<circle cx="610.31" cy="851.72" r="2.65" fill="#1d1c1c"/>
<circle cx="631.07" cy="852.21" r="3.24" fill="#1d1c1c"/>
<circle cx="649.70" cy="850.52" r="2.75" fill="#1d1c1c"/>
<circle cx="668.92" cy="853.17" r="2.68" fill="#1d1c1c"/>
<circle cx="378.31" cy="872.20" r="2.54" fill="#1d1c1c"/>
<circle cx="399.19" cy="870.57" r="3.20" fill="#1d1c1c"/>
<circle cx="416.96" cy="870.24" r="2.52" fill="#1d1c1c"/>
<circle cx="439.43" cy="873.81" r="2.30" fill="#1d1c1c"/>
<circle cx="458.75" cy="872.03" r="3.18" fill="#1d1c1c"/>
<circle cx="477.93" cy="872.04" r="2.68" fill="#1d1c1c"/>
<circle cx="500.60" cy="871.19" r="3.34" fill="#1d1c1c"/>
<circle cx="518.90" cy="871.02" r="3.07" fill="#1d1c1c"/>
<circle cx="539.99" cy="870.64" r="3.00" fill="#1d1c1c"/>
<circle cx="558.77" cy="873.11" r="3.07" fill="#1d1c1c"/>
<circle cx="581.66" cy="872.53" r="2.69" fill="#1d1c1c"/>
<circle cx="600.56" cy="871.68" r="3.28" fill="#1d1c1c"/>
<circle cx="619.71" cy="873.48" r="2.33" fill="#1d1c1c"/>
<circle cx="640.45" cy="871.20" r="3.29" fill="#1d1c1c"/>
<circle cx="661.84" cy="871.62" r="3.27" fill="#1d1c1c"/>
<circle cx="681.16" cy="871.92" r="2.88" fill="#1d1c1c"/>
<circle cx="703.37" cy="872.99" r="3.01" fill="#1d1c1c"/>
<circle cx="363.04" cy="891.72" r="2.47" fill="#1d1c1c"/>
<circle cx="385.64" cy="892.97" r="3.12" fill="#1d1c1c"/>
<circle cx="403.88" cy="892.14" r="3.15" fill="#1d1c1c"/>
<circle cx="426.16" cy="890.97" r="2.81" fill="#1d1c1c"/>
<circle cx="448.05" cy="891.39" r="2.51" fill="#1d1c1c"/>
<circle cx="466.63" cy="893.13" r="3.23" fill="#1d1c1c"/>
<circle cx="486.83" cy="891.08" r="2.57" fill="#1d1c1c"/>
<circle cx="508.22" cy="892.45" r="2.48" fill="#1d1c1c"/>
<circle cx="528.98" cy="891.21" r="3.37" fill="#1d1c1c"/>
<circle cx="551.23" cy="890.88" r="3.36" fill="#1d1c1c"/>
<circle cx="569.64" cy="891.93" r="3.38" fill="#1d1c1c"/>
<circle cx="592.98" cy="893.24" r="2.78" fill="#1d1c1c"/>
<circle cx="611.50" cy="892.88" r="2.42" fill="#1d1c1c"/>
<circle cx="632.29" cy="891.95" r="2.34" fill="#1d1c1c"/>
<circle cx="653.76" cy="893.45" r="3.06" fill="#1d1c1c"/>
<circle cx="674.89" cy="892.86" r="2.81" fill="#1d1c1c"/>
<circle cx="694.30" cy="892.75" r="2.75" fill="#1d1c1c"/>
<circle cx="717.29" cy="893.89" r="2.77" fill="#1d1c1c"/>
<circle cx="328.20" cy="914.07" r="2.76" fill="#1d1c1c"/>
<circle cx="348.09" cy="913.97" r="3.27" fill="#1d1c1c"/>
<circle cx="371.38" cy="913.88" r="3.24" fill="#1d1c1c"/>
<circle cx="392.23" cy="913.66" r="2.80" fill="#1d1c1c"/>
<circle cx="412.03" cy="913.61" r="2.41" fill="#1d1c1c"/>
<circle cx="433.65" cy="914.20" r="3.08" fill="#1d1c1c"/>
<circle cx="455.66" cy="912.17" r="2.77" fill="#1d1c1c"/>
<circle cx="476.20" cy="913.58" r="2.75" fill="#1d1c1c"/>
<circle cx="498.25" cy="914.76" r="2.50" fill="#1d1c1c"/>
<circle cx="519.38" cy="914.18" r="2.73" fill="#1d1c1c"/>
<circle cx="539.96" cy="914.93" r="2.34" fill="#1d1c1c"/>
<circle cx="561.37" cy="911.82" r="3.16" fill="#1d1c1c"/>
<circle cx="584.10" cy="913.19" r="2.41" fill="#1d1c1c"/>
<circle cx="603.91" cy="913.28" r="3.09" fill="#1d1c1c"/>
<circle cx="624.88" cy="913.65" r="3.21" fill="#1d1c1c"/>
<circle cx="646.13" cy="912.78" r="3.34" fill="#1d1c1c"/>
<circle cx="666.14" cy="913.82" r="2.73" fill="#1d1c1c"/>
<circle cx="689.46" cy="911.68" r="3.38" fill="#1d1c1c"/>
<circle cx="709.12" cy="911.43" r="2.60" fill="#1d1c1c"/>
<circle cx="730.49" cy="911.26" r="2.76" fill="#1d1c1c"/>
<circle cx="751.78" cy="913.88" r="2.69" fill="#1d1c1c"/>
<circle cx="311.49" cy="933.25" r="3.12" fill="#1d1c1c"/>
<circle cx="335.80" cy="934.43" r="2.54" fill="#1d1c1c"/>
<circle cx="356.94" cy="933.91" r="2.53" fill="#1d1c1c"/>
<circle cx="375.99" cy="935.41" r="3.19" fill="#1d1c1c"/>
<circle cx="399.64" cy="934.21" r="2.92" fill="#1d1c1c"/>
<circle cx="419.72" cy="936.14" r="2.69" fill="#1d1c1c"/>
<circle cx="443.00" cy="935.57" r="3.20" fill="#1d1c1c"/>
<circle cx="464.01" cy="933.53" r="2.90" fill="#1d1c1c"/>
<circle cx="484.35" cy="935.63" r="2.69" fill="#1d1c1c"/>
<circle cx="508.86" cy="933.42" r="2.71" fill="#1d1c1c"/>
<circle cx="528.20" cy="934.04" r="2.50" fill="#1d1c1c"/>
<circle cx="548.90" cy="935.19" r="2.61" fill="#1d1c1c"/>
<circle cx="571.52" cy="933.55" r="2.83" fill="#1d1c1c"/>
<circle cx="593.91" cy="934.86" r="3.03" fill="#1d1c1c"/>
<circle cx="615.33" cy="936.00" r="3.24" fill="#1d1c1c"/>
<circle cx="635.81" cy="935.61" r="3.30" fill="#1d1c1c"/>
<circle cx="660.32" cy="932.92" r="3.21" fill="#1d1c1c"/>
<circle cx="681.41" cy="932.44" r="2.31" fill="#1d1c1c"/>
<circle cx="704.33" cy="934.94" r="2.58" fill="#1d1c1c"/>
<circle cx="722.68" cy="932.93" r="2.56" fill="#1d1c1c"/>
<circle cx="746.99" cy="933.73" r="2.47" fill="#1d1c1c"/>
<circle cx="769.17" cy="935.47" r="2.48" fill="#1d1c1c"/>
<circle cx="790.79" cy="934.75" r="3.16" fill="#1d1c1c"/>
<circle cx="252.69" cy="957.57" r="3.17" fill="#1d1c1c"/>
<circle cx="275.53" cy="954.80" r="3.06" fill="#1d1c1c"/>
<circle cx="296.45" cy="956.97" r="2.78" fill="#1d1c1c"/>
<circle cx="320.01" cy="956.22" r="2.59" fill="#1d1c1c"/>
<circle cx="339.57" cy="954.57" r="2.84" fill="#1d1c1c"/>
<circle cx="361.02" cy="955.87" r="2.46" fill="#1d1c1c"/>
<circle cx="384.90" cy="956.00" r="2.89" fill="#1d1c1c"/>
<circle cx="408.53" cy="954.04" r="3.22" fill="#1d1c1c"/>
<circle cx="429.11" cy="956.25" r="3.03" fill="#1d1c1c"/>
<circle cx="452.75" cy="955.50" r="2.76" fill="#1d1c1c"/>
<circle cx="475.38" cy="954.31" r="3.00" fill="#1d1c1c"/>
<circle cx="496.24" cy="954.12" r="2.97" fill="#1d1c1c"/>
<circle cx="518.58" cy="957.72" r="2.66" fill="#1d1c1c"/>
<circle cx="541.92" cy="956.05" r="2.83" fill="#1d1c1c"/>
<circle cx="563.74" cy="954.14" r="3.09" fill="#1d1c1c"/>
<circle cx="584.80" cy="955.36" r="3.25" fill="#1d1c1c"/>
<circle cx="605.92" cy="955.90" r="2.88" fill="#1d1c1c"/>
<circle cx="629.69" cy="954.85" r="2.78" fill="#1d1c1c"/>
<circle cx="650.45" cy="956.22" r="3.21" fill="#1d1c1c"/>
<circle cx="672.09" cy="957.31" r="2.74" fill="#1d1c1c"/>
<circle cx="695.08" cy="955.09" r="2.86" fill="#1d1c1c"/>
<circle cx="719.11" cy="956.62" r="3.17" fill="#1d1c1c"/>
<circle cx="738.69" cy="955.27" r="2.63" fill="#1d1c1c"/>
<circle cx="761.87" cy="956.54" r="3.16" fill="#1d1c1c"/>
<circle cx="781.84" cy="956.89" r="3.27" fill="#1d1c1c"/>
<circle cx="806.01" cy="954.21" r="2.63" fill="#1d1c1c"/>
<circle cx="826.01" cy="954.77" r="3.31" fill="#1d1c1c"/>
<circle cx="212.17" cy="978.80" r="3.17" fill="#1d1c1c"/>
<circle cx="236.04" cy="978.61" r="2.98" fill="#1d1c1c"/>
<circle cx="257.52" cy="978.96" r="2.96" fill="#1d1c1c"/>
<circle cx="280.38" cy="976.98" r="3.03" fill="#1d1c1c"/>
<circle cx="302.11" cy="979.23" r="2.41" fill="#1d1c1c"/>
<circle cx="323.63" cy="976.27" r="3.15" fill="#1d1c1c"/>
<circle cx="349.25" cy="978.79" r="2.71" fill="#1d1c1c"/>
<circle cx="371.52" cy="979.32" r="2.92" fill="#1d1c1c"/>
<circle cx="391.86" cy="977.35" r="2.76" fill="#1d1c1c"/>
<circle cx="414.74" cy="977.87" r="3.01" fill="#1d1c1c"/>
<circle cx="439.89" cy="976.34" r="2.92" fill="#1d1c1c"/>
<circle cx="458.88" cy="976.60" r="3.19" fill="#1d1c1c"/>
<circle cx="483.71" cy="979.86" r="2.79" fill="#1d1c1c"/>
<circle cx="504.06" cy="977.70" r="2.95" fill="#1d1c1c"/>
<circle cx="530.46" cy="980.11" r="2.82" fill="#1d1c1c"/>
<circle cx="550.96" cy="976.53" r="3.01" fill="#1d1c1c"/>
<circle cx="572.79" cy="976.74" r="2.32" fill="#1d1c1c"/>
<circle cx="594.58" cy="978.90" r="2.43" fill="#1d1c1c"/>
<circle cx="621.14" cy="976.48" r="3.26" fill="#1d1c1c"/>
<circle cx="640.37" cy="976.19" r="3.09" fill="#1d1c1c"/>
<circle cx="663.47" cy="979.11" r="2.51" fill="#1d1c1c"/>
<circle cx="685.32" cy="979.27" r="3.08" fill="#1d1c1c"/>
<circle cx="711.24" cy="979.09" r="2.39" fill="#1d1c1c"/>
<circle cx="732.96" cy="979.01" r="2.81" fill="#1d1c1c"/>
<circle cx="756.84" cy="977.15" r="3.36" fill="#1d1c1c"/>
<circle cx="778.60" cy="976.16" r="2.32" fill="#1d1c1c"/>
<circle cx="800.97" cy="979.45" r="2.39" fill="#1d1c1c"/>
<circle cx="822.22" cy="979.09" r="2.48" fill="#1d1c1c"/>
<circle cx="847.10" cy="978.10" r="2.37" fill="#1d1c1c"/>
<circle cx="867.73" cy="978.46" r="2.78" fill="#1d1c1c"/>
<circle cx="147.40" cy="999.32" r="3.18" fill="#1d1c1c"/>
<circle cx="169.23" cy="1001.40" r="2.99" fill="#1d1c1c"/>
<circle cx="192.60" cy="1000.32" r="3.16" fill="#1d1c1c"/>
<circle cx="217.93" cy="1001.98" r="2.92" fill="#1d1c1c"/>
<circle cx="238.35" cy="998.96" r="3.37" fill="#1d1c1c"/>
<circle cx="263.20" cy="1002.16" r="2.67" fill="#1d1c1c"/>
<circle cx="285.93" cy="1002.78" r="3.21" fill="#1d1c1c"/>
<circle cx="309.05" cy="1000.00" r="2.77" fill="#1d1c1c"/>
<circle cx="333.38" cy="1000.28" r="3.05" fill="#1d1c1c"/>
<circle cx="355.32" cy="1002.44" r="3.19" fill="#1d1c1c"/>
<circle cx="377.14" cy="998.72" r="2.59" fill="#1d1c1c"/>
<circle cx="400.85" cy="1001.16" r="3.20" fill="#1d1c1c"/>
<circle cx="425.93" cy="998.89" r="3.22" fill="#1d1c1c"/>
<circle cx="448.75" cy="1002.32" r="2.93" fill="#1d1c1c"/>
<circle cx="469.65" cy="1002.26" r="3.19" fill="#1d1c1c"/>
<circle cx="494.49" cy="1002.52" r="2.68" fill="#1d1c1c"/>
<circle cx="515.13" cy="1001.02" r="3.18" fill="#1d1c1c"/>
<circle cx="538.75" cy="1001.84" r="3.32" fill="#1d1c1c"/>
<circle cx="562.03" cy="1001.24" r="3.05" fill="#1d1c1c"/>
<circle cx="586.13" cy="999.57" r="2.58" fill="#1d1c1c"/>
<circle cx="610.46" cy="1002.01" r="2.81" fill="#1d1c1c"/>
<circle cx="630.83" cy="1002.07" r="3.15" fill="#1d1c1c"/>
<circle cx="654.57" cy="1001.13" r="3.29" fill="#1d1c1c"/>
<circle cx="680.43" cy="1000.89" r="2.82" fill="#1d1c1c"/>
<circle cx="702.33" cy="999.50" r="2.51" fill="#1d1c1c"/>
<circle cx="723.77" cy="1001.63" r="2.70" fill="#1d1c1c"/>
<circle cx="748.51" cy="1000.39" r="2.87" fill="#1d1c1c"/>
<circle cx="769.91" cy="998.90" r="3.40" fill="#1d1c1c"/>
<circle cx="793.99" cy="999.15" r="3.00" fill="#1d1c1c"/>
<circle cx="818.85" cy="999.36" r="2.96" fill="#1d1c1c"/>
<circle cx="840.14" cy="1000.88" r="2.32" fill="#1d1c1c"/>
<circle cx="861.98" cy="1002.84" r="3.25" fill="#1d1c1c"/>
<circle cx="887.01" cy="1001.07" r="2.59" fill="#1d1c1c"/>
<circle cx="911.36" cy="1000.49" r="3.34" fill="#1d1c1c"/>
<circle cx="934.45" cy="1002.12" r="3.36" fill="#1d1c1c"/>
<circle cx="101.49" cy="1021.97" r="2.52" fill="#1d1c1c"/>
<circle cx="124.83" cy="1022.16" r="2.36" fill="#1d1c1c"/>
<circle cx="150.08" cy="1025.51" r="2.80" fill="#1d1c1c"/>
<circle cx="175.38" cy="1025.68" r="2.37" fill="#1d1c1c"/>
<circle cx="197.54" cy="1023.50" r="2.43" fill="#1d1c1c"/>
<circle cx="222.73" cy="1022.90" r="2.92" fill="#1d1c1c"/>
<circle cx="245.02" cy="1025.87" r="3.04" fill="#1d1c1c"/>
<circle cx="267.61" cy="1023.71" r="2.48" fill="#1d1c1c"/>
<circle cx="293.69" cy="1026.02" r="2.54" fill="#1d1c1c"/>
<circle cx="313.39" cy="1022.89" r="2.69" fill="#1d1c1c"/>
<circle cx="340.72" cy="1025.65" r="3.22" fill="#1d1c1c"/>
<circle cx="360.72" cy="1025.15" r="3.08" fill="#1d1c1c"/>
<circle cx="386.92" cy="1026.00" r="2.36" fill="#1d1c1c"/>
<circle cx="408.43" cy="1025.02" r="3.33" fill="#1d1c1c"/>
<circle cx="434.34" cy="1023.08" r="2.95" fill="#1d1c1c"/>
<circle cx="458.33" cy="1022.25" r="2.66" fill="#1d1c1c"/>
<circle cx="479.85" cy="1022.33" r="2.83" fill="#1d1c1c"/>
<circle cx="503.12" cy="1022.82" r="2.46" fill="#1d1c1c"/>
<circle cx="528.93" cy="1021.86" r="3.09" fill="#1d1c1c"/>
<circle cx="550.53" cy="1021.96" r="3.32" fill="#1d1c1c"/>
<circle cx="574.28" cy="1025.78" r="3.25" fill="#1d1c1c"/>
<circle cx="600.77" cy="1022.40" r="2.79" fill="#1d1c1c"/>
<circle cx="621.05" cy="1025.76" r="3.23" fill="#1d1c1c"/>
<circle cx="646.96" cy="1023.73" r="2.67" fill="#1d1c1c"/>
<circle cx="671.43" cy="1023.84" r="2.99" fill="#1d1c1c"/>
<circle cx="692.18" cy="1022.75" r="2.36" fill="#1d1c1c"/>
<circle cx="718.26" cy="1024.16" r="2.46" fill="#1d1c1c"/>
<circle cx="742.57" cy="1022.94" r="2.75" fill="#1d1c1c"/>
<circle cx="763.18" cy="1022.96" r="3.22" fill="#1d1c1c"/>
<circle cx="787.58" cy="1022.52" r="2.84" fill="#1d1c1c"/>
<circle cx="811.16" cy="1025.65" r="2.43" fill="#1d1c1c"/>
<circle cx="837.62" cy="1022.05" r="3.28" fill="#1d1c1c"/>
<circle cx="859.94" cy="1022.70" r="2.83" fill="#1d1c1c"/>
<circle cx="881.96" cy="1022.90" r="2.52" fill="#1d1c1c"/>
<circle cx="905.94" cy="1026.02" r="3.40" fill="#1d1c1c"/>
<circle cx="931.98" cy="1022.22" r="2.62" fill="#1d1c1c"/>
<circle cx="955.50" cy="1022.05" r="3.10" fill="#1d1c1c"/>
<circle cx="976.58" cy="1025.97" r="2.32" fill="#1d1c1c"/>
</svg>